<svg id="visual" viewBox="0 0 960 540" width="960" height="540" xmlns="http://www.w3.org/2000/svg" xmlns:xlink="http://www.w3.org/1999/xlink" version="1.1"><rect x="0" y="0" width="960" height="540" fill="#fff"></rect><path d="M0 337L10.7 337.8C21.3 338.7 42.7 340.3 64 343.7C85.3 347 106.7 352 128 355.3C149.3 358.7 170.7 360.3 192 351.2C213.3 342 234.7 322 256 310C277.3 298 298.7 294 320 296.5C341.3 299 362.7 308 384 321.3C405.3 334.7 426.7 352.3 448 355C469.3 357.7 490.7 345.3 512 329.8C533.3 314.3 554.7 295.7 576 300.3C597.3 305 618.7 333 640 339C661.3 345 682.7 329 704 314.3C725.3 299.7 746.7 286.3 768 287.5C789.3 288.7 810.7 304.3 832 314.3C853.3 324.3 874.7 328.7 896 326.2C917.3 323.7 938.7 314.3 949.3 309.7L960 305L960 541L949.3 541C938.7 541 917.3 541 896 541C874.7 541 853.3 541 832 541C810.7 541 789.3 541 768 541C746.7 541 725.3 541 704 541C682.7 541 661.3 541 640 541C618.7 541 597.3 541 576 541C554.7 541 533.3 541 512 541C490.7 541 469.3 541 448 541C426.7 541 405.3 541 384 541C362.7 541 341.3 541 320 541C298.7 541 277.3 541 256 541C234.7 541 213.3 541 192 541C170.7 541 149.3 541 128 541C106.7 541 85.3 541 64 541C42.7 541 21.3 541 10.7 541L0 541Z" fill="#4e3df9"></path><path d="M0 329L10.7 338.2C21.3 347.3 42.7 365.7 64 370.2C85.3 374.7 106.7 365.3 128 358.5C149.3 351.7 170.7 347.3 192 357.3C213.3 367.3 234.7 391.7 256 398.2C277.3 404.7 298.7 393.3 320 391.5C341.3 389.7 362.7 397.3 384 397.5C405.3 397.7 426.7 390.3 448 379C469.3 367.7 490.7 352.3 512 347.7C533.3 343 554.7 349 576 356C597.3 363 618.7 371 640 373.2C661.3 375.3 682.7 371.7 704 378.2C725.3 384.7 746.7 401.3 768 408.8C789.3 416.3 810.7 414.7 832 406.7C853.3 398.7 874.7 384.3 896 381.2C917.3 378 938.7 386 949.3 390L960 394L960 541L949.3 541C938.7 541 917.3 541 896 541C874.7 541 853.3 541 832 541C810.7 541 789.3 541 768 541C746.7 541 725.3 541 704 541C682.7 541 661.3 541 640 541C618.7 541 597.3 541 576 541C554.7 541 533.3 541 512 541C490.7 541 469.3 541 448 541C426.7 541 405.3 541 384 541C362.7 541 341.3 541 320 541C298.7 541 277.3 541 256 541C234.7 541 213.3 541 192 541C170.7 541 149.3 541 128 541C106.7 541 85.3 541 64 541C42.7 541 21.3 541 10.7 541L0 541Z" fill="#8c4df7"></path><path d="M0 458L10.7 448C21.3 438 42.7 418 64 413C85.3 408 106.7 418 128 428.5C149.3 439 170.7 450 192 449.7C213.3 449.3 234.7 437.7 256 436C277.3 434.3 298.7 442.7 320 437C341.3 431.3 362.7 411.7 384 409.7C405.3 407.7 426.7 423.3 448 428.7C469.3 434 490.7 429 512 433.5C533.3 438 554.7 452 576 453C597.3 454 618.7 442 640 440.7C661.3 439.3 682.7 448.7 704 450.2C725.3 451.7 746.7 445.3 768 433.7C789.3 422 810.7 405 832 396.3C853.3 387.7 874.7 387.3 896 392.8C917.3 398.3 938.7 409.7 949.3 415.3L960 421L960 541L949.3 541C938.7 541 917.3 541 896 541C874.7 541 853.3 541 832 541C810.7 541 789.3 541 768 541C746.7 541 725.3 541 704 541C682.7 541 661.3 541 640 541C618.7 541 597.3 541 576 541C554.7 541 533.3 541 512 541C490.7 541 469.3 541 448 541C426.7 541 405.3 541 384 541C362.7 541 341.3 541 320 541C298.7 541 277.3 541 256 541C234.7 541 213.3 541 192 541C170.7 541 149.3 541 128 541C106.7 541 85.3 541 64 541C42.7 541 21.3 541 10.7 541L0 541Z" fill="#b562f7"></path><path d="M0 477L10.7 480.3C21.3 483.7 42.7 490.3 64 485.3C85.3 480.3 106.7 463.7 128 464.3C149.3 465 170.7 483 192 492.2C213.3 501.3 234.7 501.7 256 492.3C277.3 483 298.7 464 320 460.5C341.3 457 362.7 469 384 477.3C405.3 485.7 426.7 490.3 448 490.7C469.3 491 490.7 487 512 483.5C533.3 480 554.7 477 576 478.3C597.3 479.7 618.7 485.3 640 484.3C661.3 483.3 682.7 475.7 704 477.3C725.3 479 746.7 490 768 491.2C789.3 492.3 810.7 483.7 832 478C853.3 472.3 874.7 469.7 896 467C917.3 464.3 938.7 461.7 949.3 460.3L960 459L960 541L949.3 541C938.7 541 917.3 541 896 541C874.7 541 853.3 541 832 541C810.7 541 789.3 541 768 541C746.7 541 725.3 541 704 541C682.7 541 661.3 541 640 541C618.7 541 597.3 541 576 541C554.7 541 533.3 541 512 541C490.7 541 469.3 541 448 541C426.7 541 405.3 541 384 541C362.7 541 341.3 541 320 541C298.7 541 277.3 541 256 541C234.7 541 213.3 541 192 541C170.7 541 149.3 541 128 541C106.7 541 85.3 541 64 541C42.7 541 21.3 541 10.7 541L0 541Z" fill="#d579f8"></path></svg>