<?xml version="1.0" encoding="UTF-8"?>
<svg xmlns="http://www.w3.org/2000/svg" xmlns:xlink="http://www.w3.org/1999/xlink" width="960px" height="540px" viewBox="0 0 960 540" version="1.1">
<g id="surface1">
<path style=" stroke:none;fill-rule:nonzero;fill:rgb(83.529412%,47.45098%,97.254902%);fill-opacity:1;" d="M 0 303.269531 L 12.320312 292.613281 C 24.636719 281.976562 49.273438 260.667969 73.914062 245.082031 C 98.550781 229.476562 123.1875 219.578125 147.761719 218.5 C 172.367188 217.417969 196.875 225.15625 221.480469 231.007812 C 246.054688 236.855469 270.691406 240.816406 295.332031 252.480469 C 319.96875 264.160156 344.605469 283.527344 369.242188 292.148438 C 393.878906 300.75 418.519531 298.589844 443.089844 286.925781 C 467.695312 275.246094 492.207031 254.082031 516.8125 237.304688 C 541.386719 220.53125 566.023438 208.183594 590.660156 215.292969 C 615.296875 222.402344 639.9375 248.96875 664.574219 256.65625 C 689.210938 264.339844 713.847656 253.109375 738.421875 245.351562 C 763.027344 237.578125 787.539062 233.257812 812.144531 231.546875 C 836.714844 229.835938 861.355469 230.738281 885.992188 236.910156 C 910.628906 243.101562 935.265625 254.546875 947.585938 260.289062 L 959.902344 266.011719 L 959.902344 0 L 947.585938 0 C 935.265625 0 910.628906 0 885.992188 0 C 861.355469 0 836.714844 0 812.144531 0 C 787.539062 0 763.027344 0 738.421875 0 C 713.847656 0 689.210938 0 664.574219 0 C 639.9375 0 615.296875 0 590.660156 0 C 566.023438 0 541.386719 0 516.8125 0 C 492.207031 0 467.695312 0 443.089844 0 C 418.519531 0 393.878906 0 369.242188 0 C 344.605469 0 319.96875 0 295.332031 0 C 270.691406 0 246.054688 0 221.480469 0 C 196.875 0 172.367188 0 147.761719 0 C 123.1875 0 98.550781 0 73.914062 0 C 49.273438 0 24.636719 0 12.320312 0 L 0 0 Z M 0 303.269531 "/>
<path style=" stroke:none;fill-rule:nonzero;fill:rgb(78.431373%,43.529412%,96.862745%);fill-opacity:1;" d="M 0 234.515625 L 12.320312 226.777344 C 24.636719 219.039062 49.273438 203.558594 73.914062 194.742188 C 98.550781 185.921875 123.1875 183.761719 147.761719 192.816406 C 172.367188 201.886719 196.875 222.152344 221.480469 226.957031 C 246.054688 231.761719 270.691406 221.070312 295.332031 214.394531 C 319.96875 207.699219 344.605469 205 369.242188 201.21875 C 393.878906 197.441406 418.519531 192.582031 443.089844 190.746094 C 467.695312 188.925781 492.207031 190.113281 516.8125 187.144531 C 541.386719 184.175781 566.023438 177.046875 590.660156 186.875 C 615.296875 196.71875 639.9375 223.539062 664.574219 237.882812 C 689.210938 252.207031 713.847656 254.082031 738.421875 255.664062 C 763.027344 257.25 787.539062 258.582031 812.144531 248.429688 C 836.714844 238.296875 861.355469 216.699219 885.992188 209.914062 C 910.628906 203.144531 935.265625 211.171875 947.585938 215.203125 L 959.902344 219.21875 L 959.902344 0 L 947.585938 0 C 935.265625 0 910.628906 0 885.992188 0 C 861.355469 0 836.714844 0 812.144531 0 C 787.539062 0 763.027344 0 738.421875 0 C 713.847656 0 689.210938 0 664.574219 0 C 639.9375 0 615.296875 0 590.660156 0 C 566.023438 0 541.386719 0 516.8125 0 C 492.207031 0 467.695312 0 443.089844 0 C 418.519531 0 393.878906 0 369.242188 0 C 344.605469 0 319.96875 0 295.332031 0 C 270.691406 0 246.054688 0 221.480469 0 C 196.875 0 172.367188 0 147.761719 0 C 123.1875 0 98.550781 0 73.914062 0 C 49.273438 0 24.636719 0 12.320312 0 L 0 0 Z M 0 234.515625 "/>
<path style=" stroke:none;fill-rule:nonzero;fill:rgb(72.941176%,39.607843%,96.862745%);fill-opacity:1;" d="M 0 226.777344 L 12.320312 219.34375 C 24.636719 211.894531 49.273438 197.027344 73.914062 192.726562 C 98.550781 188.441406 123.1875 194.742188 147.761719 195.066406 C 172.367188 195.40625 196.875 189.753906 221.480469 183.3125 C 246.054688 176.867188 270.691406 169.597656 295.332031 171.289062 C 319.96875 172.960938 344.605469 183.582031 369.242188 181.476562 C 393.878906 179.386719 418.519531 164.558594 443.089844 157 C 467.695312 149.4375 492.207031 149.152344 516.8125 159.878906 C 541.386719 170.621094 566.023438 192.402344 590.660156 197.476562 C 615.296875 202.535156 639.9375 190.90625 664.574219 181.117188 C 689.210938 171.34375 713.847656 163.421875 738.421875 164.378906 C 763.027344 165.347656 787.539062 175.175781 812.144531 175.121094 C 836.714844 175.070312 861.355469 165.097656 885.992188 172.296875 C 910.628906 179.496094 935.265625 203.867188 947.585938 216.03125 L 959.902344 228.21875 L 959.902344 0 L 947.585938 0 C 935.265625 0 910.628906 0 885.992188 0 C 861.355469 0 836.714844 0 812.144531 0 C 787.539062 0 763.027344 0 738.421875 0 C 713.847656 0 689.210938 0 664.574219 0 C 639.9375 0 615.296875 0 590.660156 0 C 566.023438 0 541.386719 0 516.8125 0 C 492.207031 0 467.695312 0 443.089844 0 C 418.519531 0 393.878906 0 369.242188 0 C 344.605469 0 319.96875 0 295.332031 0 C 270.691406 0 246.054688 0 221.480469 0 C 196.875 0 172.367188 0 147.761719 0 C 123.1875 0 98.550781 0 73.914062 0 C 49.273438 0 24.636719 0 12.320312 0 L 0 0 Z M 0 226.777344 "/>
<path style=" stroke:none;fill-rule:nonzero;fill:rgb(66.666667%,35.686275%,96.862745%);fill-opacity:1;" d="M 0 135.347656 L 12.320312 140.890625 C 24.636719 146.453125 49.273438 157.539062 73.914062 167.203125 C 98.550781 176.867188 123.1875 185.074219 147.761719 178.777344 C 172.367188 172.476562 196.875 151.671875 221.480469 140.332031 C 246.054688 128.992188 270.691406 127.121094 295.332031 125.71875 C 319.96875 124.3125 344.605469 123.339844 369.242188 130.992188 C 393.878906 138.640625 418.519531 154.910156 443.089844 155.539062 C 467.695312 156.171875 492.207031 141.160156 516.8125 141.339844 C 541.386719 141.519531 566.023438 156.890625 590.660156 162.164062 C 615.296875 167.4375 639.9375 162.648438 664.574219 164.234375 C 689.210938 165.816406 713.847656 173.808594 738.421875 176.203125 C 763.027344 178.597656 787.539062 175.429688 812.144531 165.996094 C 836.714844 156.585938 861.355469 140.925781 885.992188 136.121094 C 910.628906 131.332031 935.265625 137.378906 947.585938 140.421875 L 959.902344 143.445312 L 959.902344 0 L 947.585938 0 C 935.265625 0 910.628906 0 885.992188 0 C 861.355469 0 836.714844 0 812.144531 0 C 787.539062 0 763.027344 0 738.421875 0 C 713.847656 0 689.210938 0 664.574219 0 C 639.9375 0 615.296875 0 590.660156 0 C 566.023438 0 541.386719 0 516.8125 0 C 492.207031 0 467.695312 0 443.089844 0 C 418.519531 0 393.878906 0 369.242188 0 C 344.605469 0 319.96875 0 295.332031 0 C 270.691406 0 246.054688 0 221.480469 0 C 196.875 0 172.367188 0 147.761719 0 C 123.1875 0 98.550781 0 73.914062 0 C 49.273438 0 24.636719 0 12.320312 0 L 0 0 Z M 0 135.347656 "/>
<path style=" stroke:none;fill-rule:nonzero;fill:rgb(60%,32.54902%,96.862745%);fill-opacity:1;" d="M 0 153.164062 L 12.320312 147.585938 C 24.636719 142.003906 49.273438 130.847656 73.914062 124.816406 C 98.550781 118.789062 123.1875 117.886719 147.761719 125.035156 C 172.367188 132.160156 196.875 147.351562 221.480469 146.179688 C 246.054688 145.011719 270.691406 127.480469 295.332031 117.023438 C 319.96875 106.550781 344.605469 103.128906 369.242188 106.964844 C 393.878906 110.816406 418.519531 121.902344 443.089844 125.679688 C 467.695312 129.460938 492.207031 125.933594 516.8125 120.445312 C 541.386719 114.953125 566.023438 107.503906 590.660156 112.003906 C 615.296875 116.503906 639.9375 132.953125 664.574219 137.378906 C 689.210938 141.824219 713.847656 134.265625 738.421875 127.695312 C 763.027344 121.128906 787.539062 115.546875 812.144531 120.949219 C 836.714844 126.347656 861.355469 142.726562 885.992188 140.980469 C 910.628906 139.253906 935.265625 119.382812 947.585938 109.464844 L 959.902344 99.53125 L 959.902344 0 L 947.585938 0 C 935.265625 0 910.628906 0 885.992188 0 C 861.355469 0 836.714844 0 812.144531 0 C 787.539062 0 763.027344 0 738.421875 0 C 713.847656 0 689.210938 0 664.574219 0 C 639.9375 0 615.296875 0 590.660156 0 C 566.023438 0 541.386719 0 516.8125 0 C 492.207031 0 467.695312 0 443.089844 0 C 418.519531 0 393.878906 0 369.242188 0 C 344.605469 0 319.96875 0 295.332031 0 C 270.691406 0 246.054688 0 221.480469 0 C 196.875 0 172.367188 0 147.761719 0 C 123.1875 0 98.550781 0 73.914062 0 C 49.273438 0 24.636719 0 12.320312 0 L 0 0 Z M 0 153.164062 "/>
<path style=" stroke:none;fill-rule:nonzero;fill:rgb(52.156863%,29.411765%,97.254902%);fill-opacity:1;" d="M 0 91.609375 L 12.320312 91.25 C 24.636719 90.890625 49.273438 90.171875 73.914062 93.644531 C 98.550781 97.136719 123.1875 104.804688 147.761719 110.203125 C 172.367188 115.601562 196.875 118.734375 221.480469 113.785156 C 246.054688 108.835938 270.691406 95.804688 295.332031 95.300781 C 319.96875 94.796875 344.605469 106.785156 369.242188 109.789062 C 393.878906 112.792969 418.519531 106.785156 443.089844 104.695312 C 467.695312 102.589844 492.207031 104.390625 516.8125 104.929688 C 541.386719 105.46875 566.023438 104.75 590.660156 102.734375 C 615.296875 100.734375 639.9375 97.425781 664.574219 96.46875 C 689.210938 95.515625 713.847656 96.882812 738.421875 94.582031 C 763.027344 92.277344 787.539062 86.265625 812.144531 90.710938 C 836.714844 95.15625 861.355469 110.023438 885.992188 108.582031 C 910.628906 107.144531 935.265625 89.398438 947.585938 80.507812 L 959.902344 71.632812 L 959.902344 0 L 947.585938 0 C 935.265625 0 910.628906 0 885.992188 0 C 861.355469 0 836.714844 0 812.144531 0 C 787.539062 0 763.027344 0 738.421875 0 C 713.847656 0 689.210938 0 664.574219 0 C 639.9375 0 615.296875 0 590.660156 0 C 566.023438 0 541.386719 0 516.8125 0 C 492.207031 0 467.695312 0 443.089844 0 C 418.519531 0 393.878906 0 369.242188 0 C 344.605469 0 319.96875 0 295.332031 0 C 270.691406 0 246.054688 0 221.480469 0 C 196.875 0 172.367188 0 147.761719 0 C 123.1875 0 98.550781 0 73.914062 0 C 49.273438 0 24.636719 0 12.320312 0 L 0 0 Z M 0 91.609375 "/>
<path style=" stroke:none;fill-rule:nonzero;fill:rgb(42.745098%,26.27451%,97.254902%);fill-opacity:1;" d="M 0 61.734375 L 12.320312 65.207031 C 24.636719 68.699219 49.273438 75.644531 73.914062 78.652344 C 98.550781 81.65625 123.1875 80.6875 147.761719 81.136719 C 172.367188 81.585938 196.875 83.457031 221.480469 80.507812 C 246.054688 77.570312 270.691406 69.832031 295.332031 64.019531 C 319.96875 58.1875 344.605469 54.300781 369.242188 54.929688 C 393.878906 55.558594 418.519531 60.707031 443.089844 60.617188 C 467.695312 60.527344 492.207031 55.199219 516.8125 53.417969 C 541.386719 51.65625 566.023438 53.453125 590.660156 55.742188 C 615.296875 58.007812 639.9375 60.78125 664.574219 62.308594 C 689.210938 63.839844 713.847656 64.128906 738.421875 61.96875 C 763.027344 59.808594 787.539062 55.199219 812.144531 58.402344 C 836.714844 61.609375 861.355469 72.660156 885.992188 78.113281 C 910.628906 83.566406 935.265625 83.457031 947.585938 83.386719 L 959.902344 83.332031 L 959.902344 0 L 947.585938 0 C 935.265625 0 910.628906 0 885.992188 0 C 861.355469 0 836.714844 0 812.144531 0 C 787.539062 0 763.027344 0 738.421875 0 C 713.847656 0 689.210938 0 664.574219 0 C 639.9375 0 615.296875 0 590.660156 0 C 566.023438 0 541.386719 0 516.8125 0 C 492.207031 0 467.695312 0 443.089844 0 C 418.519531 0 393.878906 0 369.242188 0 C 344.605469 0 319.96875 0 295.332031 0 C 270.691406 0 246.054688 0 221.480469 0 C 196.875 0 172.367188 0 147.761719 0 C 123.1875 0 98.550781 0 73.914062 0 C 49.273438 0 24.636719 0 12.320312 0 L 0 0 Z M 0 61.734375 "/>
<path style=" stroke:none;fill-rule:nonzero;fill:rgb(30.588235%,23.921569%,97.647059%);fill-opacity:1;" d="M 0 29.515625 L 12.320312 30.722656 C 24.636719 31.910156 49.273438 34.324219 73.914062 37.492188 C 98.550781 40.675781 123.1875 44.636719 147.761719 45.570312 C 172.367188 46.488281 196.875 44.402344 221.480469 41.523438 C 246.054688 38.640625 270.691406 34.96875 295.332031 34.789062 C 319.96875 34.609375 344.605469 37.921875 369.242188 36.949219 C 393.878906 35.996094 418.519531 30.777344 443.089844 31.316406 C 467.695312 31.855469 492.207031 38.15625 516.8125 43.25 C 541.386719 48.359375 566.023438 52.25 590.660156 52.859375 C 615.296875 53.453125 639.9375 50.753906 664.574219 44.996094 C 689.210938 39.234375 713.847656 30.417969 738.421875 26.367188 C 763.027344 22.316406 787.539062 23.039062 812.144531 25.199219 C 836.714844 27.355469 861.355469 30.957031 885.992188 36.140625 C 910.628906 41.34375 935.265625 48.109375 947.585938 51.511719 L 959.902344 54.894531 L 959.902344 0 L 947.585938 0 C 935.265625 0 910.628906 0 885.992188 0 C 861.355469 0 836.714844 0 812.144531 0 C 787.539062 0 763.027344 0 738.421875 0 C 713.847656 0 689.210938 0 664.574219 0 C 639.9375 0 615.296875 0 590.660156 0 C 566.023438 0 541.386719 0 516.8125 0 C 492.207031 0 467.695312 0 443.089844 0 C 418.519531 0 393.878906 0 369.242188 0 C 344.605469 0 319.96875 0 295.332031 0 C 270.691406 0 246.054688 0 221.480469 0 C 196.875 0 172.367188 0 147.761719 0 C 123.1875 0 98.550781 0 73.914062 0 C 49.273438 0 24.636719 0 12.320312 0 L 0 0 Z M 0 29.515625 "/>
<path style=" stroke:none;fill-rule:nonzero;fill:rgb(30.588235%,23.921569%,97.647059%);fill-opacity:1;" d="M 0 402.28125 L 10.816406 402.882812 C 21.667969 403.503906 43.304688 404.710938 64.972656 406.996094 C 86.640625 409.28125 108.277344 412.640625 129.945312 414.796875 C 151.613281 416.953125 173.25 417.941406 194.917969 411.726562 C 216.585938 405.515625 238.222656 392.101562 259.890625 384.042969 C 281.558594 375.964844 303.195312 373.226562 324.863281 374.871094 C 346.53125 376.515625 368.167969 382.546875 389.835938 391.589844 C 411.503906 400.636719 433.140625 412.695312 454.808594 414.523438 C 476.476562 416.351562 498.113281 407.945312 519.78125 397.476562 C 541.449219 386.984375 563.085938 374.449219 584.753906 377.554688 C 606.421875 380.664062 628.058594 399.410156 649.726562 403.46875 C 671.394531 407.523438 693.03125 396.855469 714.699219 386.984375 C 736.371094 377.117188 758.003906 368.054688 779.671875 368.804688 C 801.34375 369.570312 822.976562 380.167969 844.644531 386.929688 C 866.316406 393.691406 887.949219 396.617188 909.621094 394.878906 C 931.289062 393.144531 952.921875 386.75 963.773438 383.550781 L 974.59375 380.351562 L 974.59375 539.332031 L 963.773438 539.332031 C 952.921875 539.332031 931.289062 539.332031 909.621094 539.332031 C 887.949219 539.332031 866.316406 539.332031 844.644531 539.332031 C 822.976562 539.332031 801.34375 539.332031 779.671875 539.332031 C 758.003906 539.332031 736.371094 539.332031 714.699219 539.332031 C 693.03125 539.332031 671.394531 539.332031 649.726562 539.332031 C 628.058594 539.332031 606.421875 539.332031 584.753906 539.332031 C 563.085938 539.332031 541.449219 539.332031 519.78125 539.332031 C 498.113281 539.332031 476.476562 539.332031 454.808594 539.332031 C 433.140625 539.332031 411.503906 539.332031 389.835938 539.332031 C 368.167969 539.332031 346.53125 539.332031 324.863281 539.332031 C 303.195312 539.332031 281.558594 539.332031 259.890625 539.332031 C 238.222656 539.332031 216.585938 539.332031 194.917969 539.332031 C 173.25 539.332031 151.613281 539.332031 129.945312 539.332031 C 108.277344 539.332031 86.640625 539.332031 64.972656 539.332031 C 43.304688 539.332031 21.667969 539.332031 10.816406 539.332031 L 0 539.332031 Z M 0 402.28125 "/>
<path style=" stroke:none;fill-rule:nonzero;fill:rgb(54.901961%,30.196078%,96.862745%);fill-opacity:1;" d="M 0 397.164062 L 10.816406 403.324219 C 21.667969 409.460938 43.304688 421.777344 64.972656 424.722656 C 86.640625 427.679688 108.277344 421.285156 129.945312 416.660156 C 151.613281 412.019531 173.25 409.171875 194.917969 415.949219 C 216.585938 422.746094 238.222656 439.195312 259.890625 443.578125 C 281.558594 447.964844 303.195312 440.289062 324.863281 439.046875 C 346.53125 437.785156 368.167969 442.976562 389.835938 443.121094 C 411.503906 443.269531 433.140625 438.40625 454.808594 430.695312 C 476.476562 422.984375 498.113281 412.460938 519.78125 409.316406 C 541.449219 406.171875 563.085938 410.449219 584.753906 415.253906 C 606.421875 420.0625 628.058594 425.433594 649.726562 426.820312 C 671.394531 428.230469 693.03125 425.671875 714.699219 430.058594 C 736.371094 434.441406 758.003906 445.773438 779.671875 450.925781 C 801.34375 456.058594 822.976562 455.035156 844.644531 449.554688 C 866.316406 444.074219 887.949219 434.132812 909.621094 431.921875 C 931.289062 429.691406 952.921875 435.171875 963.773438 437.914062 L 974.59375 440.65625 L 974.59375 539.332031 L 963.773438 539.332031 C 952.921875 539.332031 931.289062 539.332031 909.621094 539.332031 C 887.949219 539.332031 866.316406 539.332031 844.644531 539.332031 C 822.976562 539.332031 801.34375 539.332031 779.671875 539.332031 C 758.003906 539.332031 736.371094 539.332031 714.699219 539.332031 C 693.03125 539.332031 671.394531 539.332031 649.726562 539.332031 C 628.058594 539.332031 606.421875 539.332031 584.753906 539.332031 C 563.085938 539.332031 541.449219 539.332031 519.78125 539.332031 C 498.113281 539.332031 476.476562 539.332031 454.808594 539.332031 C 433.140625 539.332031 411.503906 539.332031 389.835938 539.332031 C 368.167969 539.332031 346.53125 539.332031 324.863281 539.332031 C 303.195312 539.332031 281.558594 539.332031 259.890625 539.332031 C 238.222656 539.332031 216.585938 539.332031 194.917969 539.332031 C 173.25 539.332031 151.613281 539.332031 129.945312 539.332031 C 108.277344 539.332031 86.640625 539.332031 64.972656 539.332031 C 43.304688 539.332031 21.667969 539.332031 10.816406 539.332031 L 0 539.332031 Z M 0 397.164062 "/>
<path style=" stroke:none;fill-rule:nonzero;fill:rgb(70.980392%,38.431373%,96.862745%);fill-opacity:1;" d="M 0 484.328125 L 10.816406 477.566406 C 21.667969 470.808594 43.304688 457.285156 64.972656 453.847656 C 86.640625 450.394531 108.277344 457.046875 129.945312 464.136719 C 151.613281 471.226562 173.25 478.792969 194.917969 478.574219 C 216.585938 478.355469 238.222656 470.386719 259.890625 469.21875 C 281.558594 468.066406 303.195312 473.730469 324.863281 469.929688 C 346.53125 466.109375 368.167969 452.84375 389.835938 451.472656 C 411.503906 450.101562 433.140625 460.628906 454.808594 464.226562 C 476.476562 467.828125 498.113281 464.464844 519.78125 467.480469 C 541.449219 470.496094 563.085938 479.890625 584.753906 480.621094 C 606.421875 481.351562 628.058594 473.417969 649.726562 472.578125 C 671.394531 471.71875 693.03125 477.933594 714.699219 478.882812 C 736.371094 479.816406 758.003906 475.503906 779.671875 467.644531 C 801.34375 459.789062 822.976562 448.386719 844.644531 442.539062 C 866.316406 436.691406 887.949219 436.398438 909.621094 440.070312 C 931.289062 443.761719 952.921875 451.4375 963.773438 455.273438 L 974.59375 459.113281 L 974.59375 539.332031 L 963.773438 539.332031 C 952.921875 539.332031 931.289062 539.332031 909.621094 539.332031 C 887.949219 539.332031 866.316406 539.332031 844.644531 539.332031 C 822.976562 539.332031 801.34375 539.332031 779.671875 539.332031 C 758.003906 539.332031 736.371094 539.332031 714.699219 539.332031 C 693.03125 539.332031 671.394531 539.332031 649.726562 539.332031 C 628.058594 539.332031 606.421875 539.332031 584.753906 539.332031 C 563.085938 539.332031 541.449219 539.332031 519.78125 539.332031 C 498.113281 539.332031 476.476562 539.332031 454.808594 539.332031 C 433.140625 539.332031 411.503906 539.332031 389.835938 539.332031 C 368.167969 539.332031 346.53125 539.332031 324.863281 539.332031 C 303.195312 539.332031 281.558594 539.332031 259.890625 539.332031 C 238.222656 539.332031 216.585938 539.332031 194.917969 539.332031 C 173.25 539.332031 151.613281 539.332031 129.945312 539.332031 C 108.277344 539.332031 86.640625 539.332031 64.972656 539.332031 C 43.304688 539.332031 21.667969 539.332031 10.816406 539.332031 L 0 539.332031 Z M 0 484.328125 "/>
<path style=" stroke:none;fill-rule:nonzero;fill:rgb(83.529412%,47.45098%,97.254902%);fill-opacity:1;" d="M 0 497.121094 L 10.816406 499.3125 C 21.667969 501.507812 43.304688 505.890625 64.972656 502.457031 C 86.640625 499.003906 108.277344 487.746094 129.945312 488.203125 C 151.613281 488.660156 173.25 500.832031 194.917969 507.042969 C 216.585938 513.257812 238.222656 513.511719 259.890625 507.207031 C 281.558594 500.902344 303.195312 488.039062 324.863281 485.734375 C 346.53125 483.414062 368.167969 491.640625 389.835938 497.304688 C 411.503906 502.96875 433.140625 506.074219 454.808594 506.222656 C 476.476562 506.386719 498.113281 503.570312 519.78125 501.269531 C 541.449219 498.949219 563.085938 497.121094 584.753906 498.125 C 606.421875 499.128906 628.058594 502.96875 649.726562 502.238281 C 671.394531 501.507812 693.03125 496.207031 714.699219 497.304688 C 736.371094 498.398438 758.003906 505.890625 779.671875 506.714844 C 801.34375 507.535156 822.976562 501.6875 844.644531 497.816406 C 866.316406 493.960938 887.949219 492.058594 909.621094 490.214844 C 931.289062 488.347656 952.921875 486.523438 963.773438 485.609375 L 974.59375 484.695312 L 974.59375 539.332031 L 963.773438 539.332031 C 952.921875 539.332031 931.289062 539.332031 909.621094 539.332031 C 887.949219 539.332031 866.316406 539.332031 844.644531 539.332031 C 822.976562 539.332031 801.34375 539.332031 779.671875 539.332031 C 758.003906 539.332031 736.371094 539.332031 714.699219 539.332031 C 693.03125 539.332031 671.394531 539.332031 649.726562 539.332031 C 628.058594 539.332031 606.421875 539.332031 584.753906 539.332031 C 563.085938 539.332031 541.449219 539.332031 519.78125 539.332031 C 498.113281 539.332031 476.476562 539.332031 454.808594 539.332031 C 433.140625 539.332031 411.503906 539.332031 389.835938 539.332031 C 368.167969 539.332031 346.53125 539.332031 324.863281 539.332031 C 303.195312 539.332031 281.558594 539.332031 259.890625 539.332031 C 238.222656 539.332031 216.585938 539.332031 194.917969 539.332031 C 173.25 539.332031 151.613281 539.332031 129.945312 539.332031 C 108.277344 539.332031 86.640625 539.332031 64.972656 539.332031 C 43.304688 539.332031 21.667969 539.332031 10.816406 539.332031 L 0 539.332031 Z M 0 497.121094 "/>
</g>
</svg>
