<svg id="visual" viewBox="0 0 960 540" width="1200" height="500" xmlns="http://www.w3.org/2000/svg"
     xmlns:xlink="http://www.w3.org/1999/xlink" version="1.1">
    <rect x="0" y="0" width="960" height="540" fill="#fff"></rect>
    <path d="M0 246L10.7 240C21.3 234 42.7 222 64 223.3C85.3 224.7 106.7 239.3 128 234C149.3 228.7 170.7 203.3 192 196.2C213.3 189 234.7 200 256 202.3C277.3 204.7 298.7 198.3 320 195.5C341.3 192.7 362.7 193.3 384 190.8C405.3 188.3 426.7 182.7 448 187.5C469.3 192.3 490.7 207.7 512 210.3C533.3 213 554.7 203 576 193.8C597.3 184.7 618.7 176.3 640 172.8C661.3 169.3 682.7 170.7 704 179.3C725.3 188 746.7 204 768 219.3C789.3 234.7 810.7 249.3 832 244.2C853.3 239 874.7 214 896 198.7C917.3 183.3 938.7 177.7 949.3 174.8L960 172L960 0L949.3 0C938.7 0 917.3 0 896 0C874.7 0 853.3 0 832 0C810.7 0 789.3 0 768 0C746.7 0 725.3 0 704 0C682.7 0 661.3 0 640 0C618.7 0 597.3 0 576 0C554.7 0 533.3 0 512 0C490.7 0 469.3 0 448 0C426.7 0 405.3 0 384 0C362.7 0 341.3 0 320 0C298.7 0 277.3 0 256 0C234.7 0 213.3 0 192 0C170.7 0 149.3 0 128 0C106.7 0 85.3 0 64 0C42.7 0 21.3 0 10.7 0L0 0Z"
          fill="#d579f8"></path>
    <path d="M0 181L10.7 184C21.3 187 42.7 193 64 196.2C85.3 199.3 106.7 199.7 128 195.8C149.3 192 170.7 184 192 177.5C213.3 171 234.7 166 256 167.3C277.3 168.7 298.7 176.3 320 187.2C341.3 198 362.7 212 384 218C405.3 224 426.7 222 448 208C469.3 194 490.7 168 512 166.3C533.3 164.7 554.7 187.3 576 189.8C597.3 192.3 618.7 174.7 640 166.3C661.3 158 682.7 159 704 165.8C725.3 172.7 746.7 185.3 768 193.8C789.3 202.3 810.7 206.7 832 200.8C853.3 195 874.7 179 896 171.3C917.3 163.7 938.7 164.3 949.3 164.7L960 165L960 0L949.3 0C938.7 0 917.3 0 896 0C874.7 0 853.3 0 832 0C810.7 0 789.3 0 768 0C746.7 0 725.3 0 704 0C682.7 0 661.3 0 640 0C618.7 0 597.3 0 576 0C554.7 0 533.3 0 512 0C490.7 0 469.3 0 448 0C426.7 0 405.3 0 384 0C362.7 0 341.3 0 320 0C298.7 0 277.3 0 256 0C234.7 0 213.3 0 192 0C170.7 0 149.3 0 128 0C106.7 0 85.3 0 64 0C42.7 0 21.3 0 10.7 0L0 0Z"
          fill="#c36bf7"></path>
    <path d="M0 178L10.7 169.8C21.3 161.7 42.7 145.3 64 143.5C85.3 141.7 106.7 154.3 128 151.8C149.3 149.3 170.7 131.7 192 132.3C213.3 133 234.7 152 256 160.3C277.3 168.7 298.7 166.3 320 162.5C341.3 158.7 362.7 153.3 384 155.7C405.3 158 426.7 168 448 172.7C469.3 177.3 490.7 176.7 512 166.3C533.3 156 554.7 136 576 128.7C597.3 121.3 618.7 126.7 640 128.8C661.3 131 682.7 130 704 132.3C725.3 134.7 746.7 140.3 768 145.2C789.3 150 810.7 154 832 149.7C853.3 145.3 874.7 132.7 896 131.7C917.3 130.7 938.7 141.3 949.3 146.7L960 152L960 0L949.3 0C938.7 0 917.3 0 896 0C874.7 0 853.3 0 832 0C810.7 0 789.3 0 768 0C746.7 0 725.3 0 704 0C682.7 0 661.3 0 640 0C618.7 0 597.3 0 576 0C554.7 0 533.3 0 512 0C490.7 0 469.3 0 448 0C426.7 0 405.3 0 384 0C362.7 0 341.3 0 320 0C298.7 0 277.3 0 256 0C234.7 0 213.3 0 192 0C170.7 0 149.3 0 128 0C106.7 0 85.3 0 64 0C42.7 0 21.3 0 10.7 0L0 0Z"
          fill="#ae5df7"></path>
    <path d="M0 108L10.7 105.5C21.3 103 42.7 98 64 95.8C85.3 93.7 106.7 94.3 128 94.7C149.3 95 170.7 95 192 102.8C213.3 110.7 234.7 126.3 256 125.7C277.3 125 298.7 108 320 109.2C341.3 110.3 362.7 129.7 384 135.8C405.3 142 426.7 135 448 123.5C469.3 112 490.7 96 512 96C533.3 96 554.7 112 576 123.2C597.3 134.3 618.7 140.7 640 141.3C661.3 142 682.7 137 704 127C725.3 117 746.7 102 768 95.3C789.3 88.7 810.7 90.3 832 100C853.3 109.7 874.7 127.3 896 128.8C917.3 130.3 938.7 115.7 949.3 108.3L960 101L960 0L949.3 0C938.7 0 917.3 0 896 0C874.7 0 853.3 0 832 0C810.7 0 789.3 0 768 0C746.7 0 725.3 0 704 0C682.7 0 661.3 0 640 0C618.7 0 597.3 0 576 0C554.7 0 533.3 0 512 0C490.7 0 469.3 0 448 0C426.7 0 405.3 0 384 0C362.7 0 341.3 0 320 0C298.7 0 277.3 0 256 0C234.7 0 213.3 0 192 0C170.7 0 149.3 0 128 0C106.7 0 85.3 0 64 0C42.7 0 21.3 0 10.7 0L0 0Z"
          fill="#9551f7"></path>
    <path d="M0 59L10.7 62.8C21.3 66.7 42.7 74.3 64 74.8C85.3 75.3 106.7 68.7 128 65.8C149.3 63 170.7 64 192 65.2C213.3 66.3 234.7 67.7 256 71.2C277.3 74.7 298.7 80.3 320 80.3C341.3 80.3 362.7 74.7 384 72.3C405.3 70 426.7 71 448 72C469.3 73 490.7 74 512 74.7C533.3 75.3 554.7 75.7 576 75.3C597.3 75 618.7 74 640 72.5C661.3 71 682.7 69 704 72C725.3 75 746.7 83 768 85.8C789.3 88.7 810.7 86.3 832 87C853.3 87.7 874.7 91.3 896 91.7C917.3 92 938.7 89 949.3 87.5L960 86L960 0L949.3 0C938.7 0 917.3 0 896 0C874.7 0 853.3 0 832 0C810.7 0 789.3 0 768 0C746.7 0 725.3 0 704 0C682.7 0 661.3 0 640 0C618.7 0 597.3 0 576 0C554.7 0 533.3 0 512 0C490.7 0 469.3 0 448 0C426.7 0 405.3 0 384 0C362.7 0 341.3 0 320 0C298.7 0 277.3 0 256 0C234.7 0 213.3 0 192 0C170.7 0 149.3 0 128 0C106.7 0 85.3 0 64 0C42.7 0 21.3 0 10.7 0L0 0Z"
          fill="#7846f8"></path>
    <path d="M0 64L10.7 59.7C21.3 55.3 42.7 46.7 64 40.2C85.3 33.7 106.7 29.3 128 31.5C149.3 33.7 170.7 42.3 192 45.7C213.3 49 234.7 47 256 42.7C277.3 38.3 298.7 31.7 320 28.5C341.3 25.3 362.7 25.7 384 32C405.3 38.3 426.7 50.7 448 56.8C469.3 63 490.7 63 512 61C533.3 59 554.7 55 576 49.3C597.3 43.7 618.7 36.3 640 37.7C661.3 39 682.7 49 704 55C725.3 61 746.7 63 768 58.7C789.3 54.3 810.7 43.7 832 39.5C853.3 35.3 874.7 37.7 896 42.8C917.3 48 938.7 56 949.3 60L960 64L960 0L949.3 0C938.7 0 917.3 0 896 0C874.7 0 853.3 0 832 0C810.7 0 789.3 0 768 0C746.7 0 725.3 0 704 0C682.7 0 661.3 0 640 0C618.7 0 597.3 0 576 0C554.7 0 533.3 0 512 0C490.7 0 469.3 0 448 0C426.7 0 405.3 0 384 0C362.7 0 341.3 0 320 0C298.7 0 277.3 0 256 0C234.7 0 213.3 0 192 0C170.7 0 149.3 0 128 0C106.7 0 85.3 0 64 0C42.7 0 21.3 0 10.7 0L0 0Z"
          fill="#4e3df9"></path>
</svg>