<svg id="visual" viewBox="0 0 960 540" width="960" height="540" xmlns="http://www.w3.org/2000/svg" xmlns:xlink="http://www.w3.org/1999/xlink" version="1.1"><rect x="0" y="0" width="960" height="540" fill="#d579f8"></rect><path d="M0 315L12.3 324.8C24.7 334.7 49.3 354.3 74 360.8C98.7 367.3 123.3 360.7 148 367.8C172.7 375 197.3 396 221.8 408.2C246.3 420.3 270.7 423.7 295.2 421.5C319.7 419.3 344.3 411.7 369 400.7C393.7 389.7 418.3 375.3 443 383.2C467.7 391 492.3 421 517 420.5C541.7 420 566.3 389 591 377.8C615.7 366.7 640.3 375.3 664.8 374.5C689.3 373.7 713.7 363.3 738.2 373.3C762.7 383.3 787.3 413.7 812 426.2C836.7 438.7 861.3 433.3 886 430.7C910.7 428 935.3 428 947.7 428L960 428L960 0L947.7 0C935.3 0 910.7 0 886 0C861.3 0 836.7 0 812 0C787.3 0 762.7 0 738.2 0C713.7 0 689.3 0 664.8 0C640.3 0 615.7 0 591 0C566.3 0 541.7 0 517 0C492.3 0 467.7 0 443 0C418.3 0 393.7 0 369 0C344.3 0 319.7 0 295.2 0C270.7 0 246.3 0 221.8 0C197.3 0 172.7 0 148 0C123.3 0 98.7 0 74 0C49.3 0 24.7 0 12.3 0L0 0Z" fill="#d579f8"></path><path d="M0 388L12.3 388.3C24.7 388.7 49.3 389.3 74 389.7C98.7 390 123.3 390 148 380.7C172.7 371.3 197.3 352.7 221.8 336.7C246.3 320.7 270.7 307.3 295.2 298.3C319.7 289.3 344.3 284.7 369 294.7C393.7 304.7 418.3 329.3 443 335.2C467.7 341 492.3 328 517 322.8C541.7 317.7 566.3 320.3 591 316.3C615.7 312.3 640.3 301.7 664.8 304.7C689.3 307.7 713.7 324.3 738.2 330.8C762.7 337.3 787.3 333.7 812 325.8C836.7 318 861.3 306 886 308.2C910.7 310.3 935.3 326.7 947.7 334.8L960 343L960 0L947.7 0C935.3 0 910.7 0 886 0C861.3 0 836.7 0 812 0C787.3 0 762.7 0 738.2 0C713.7 0 689.3 0 664.8 0C640.3 0 615.7 0 591 0C566.3 0 541.7 0 517 0C492.3 0 467.7 0 443 0C418.3 0 393.7 0 369 0C344.3 0 319.7 0 295.2 0C270.7 0 246.3 0 221.8 0C197.3 0 172.7 0 148 0C123.3 0 98.7 0 74 0C49.3 0 24.7 0 12.3 0L0 0Z" fill="#c86ff7"></path><path d="M0 290L12.3 279.7C24.7 269.3 49.3 248.7 74 249.2C98.7 249.7 123.3 271.3 148 287.8C172.7 304.3 197.3 315.7 221.8 310.5C246.3 305.3 270.7 283.7 295.2 276.2C319.7 268.7 344.3 275.3 369 277.5C393.7 279.7 418.3 277.3 443 286.5C467.7 295.7 492.3 316.3 517 316.7C541.7 317 566.3 297 591 283.2C615.7 269.3 640.3 261.7 664.8 254.7C689.3 247.7 713.7 241.3 738.2 239.3C762.7 237.3 787.3 239.7 812 254.2C836.7 268.7 861.3 295.3 886 296.7C910.7 298 935.3 274 947.7 262L960 250L960 0L947.7 0C935.3 0 910.7 0 886 0C861.3 0 836.7 0 812 0C787.3 0 762.7 0 738.2 0C713.7 0 689.3 0 664.8 0C640.3 0 615.7 0 591 0C566.3 0 541.7 0 517 0C492.3 0 467.7 0 443 0C418.3 0 393.7 0 369 0C344.3 0 319.7 0 295.2 0C270.7 0 246.3 0 221.8 0C197.3 0 172.7 0 148 0C123.3 0 98.7 0 74 0C49.3 0 24.7 0 12.3 0L0 0Z" fill="#ba65f7"></path><path d="M0 242L12.3 246.3C24.7 250.7 49.3 259.3 74 249C98.7 238.7 123.3 209.3 148 195.3C172.7 181.3 197.3 182.7 221.8 194C246.3 205.3 270.7 226.7 295.2 227.8C319.7 229 344.3 210 369 205.8C393.7 201.7 418.3 212.3 443 215.3C467.7 218.3 492.3 213.7 517 209.7C541.7 205.7 566.3 202.3 591 207.8C615.7 213.3 640.3 227.7 664.8 229.2C689.3 230.7 713.7 219.3 738.2 217.5C762.7 215.7 787.3 223.3 812 227C836.7 230.7 861.3 230.3 886 227C910.7 223.7 935.3 217.3 947.7 214.2L960 211L960 0L947.7 0C935.3 0 910.7 0 886 0C861.3 0 836.7 0 812 0C787.3 0 762.7 0 738.2 0C713.7 0 689.3 0 664.8 0C640.3 0 615.7 0 591 0C566.3 0 541.7 0 517 0C492.3 0 467.7 0 443 0C418.3 0 393.7 0 369 0C344.3 0 319.7 0 295.2 0C270.7 0 246.3 0 221.8 0C197.3 0 172.7 0 148 0C123.3 0 98.7 0 74 0C49.3 0 24.7 0 12.3 0L0 0Z" fill="#aa5bf7"></path><path d="M0 216L12.3 204.8C24.7 193.7 49.3 171.3 74 167.3C98.7 163.3 123.3 177.7 148 177C172.7 176.3 197.3 160.7 221.8 160.3C246.3 160 270.7 175 295.2 187.5C319.7 200 344.3 210 369 217.2C393.7 224.3 418.3 228.7 443 223.3C467.7 218 492.3 203 517 188.7C541.7 174.3 566.3 160.7 591 153.3C615.7 146 640.3 145 664.8 157.2C689.3 169.3 713.7 194.7 738.2 209.5C762.7 224.3 787.3 228.7 812 219.2C836.7 209.7 861.3 186.3 886 182.3C910.7 178.3 935.3 193.7 947.7 201.3L960 209L960 0L947.7 0C935.3 0 910.7 0 886 0C861.3 0 836.7 0 812 0C787.3 0 762.7 0 738.2 0C713.7 0 689.3 0 664.8 0C640.3 0 615.7 0 591 0C566.3 0 541.7 0 517 0C492.3 0 467.7 0 443 0C418.3 0 393.7 0 369 0C344.3 0 319.7 0 295.2 0C270.7 0 246.3 0 221.8 0C197.3 0 172.7 0 148 0C123.3 0 98.7 0 74 0C49.3 0 24.7 0 12.3 0L0 0Z" fill="#9953f7"></path><path d="M0 148L12.3 148C24.7 148 49.3 148 74 149.5C98.7 151 123.3 154 148 161.2C172.7 168.3 197.3 179.7 221.8 181.7C246.3 183.7 270.7 176.3 295.2 168.7C319.7 161 344.3 153 369 148.5C393.7 144 418.3 143 443 138C467.7 133 492.3 124 517 119C541.7 114 566.3 113 591 116.2C615.7 119.3 640.3 126.7 664.8 135.8C689.3 145 713.7 156 738.2 160.3C762.7 164.7 787.3 162.3 812 163.2C836.7 164 861.3 168 886 173C910.7 178 935.3 184 947.7 187L960 190L960 0L947.7 0C935.3 0 910.7 0 886 0C861.3 0 836.7 0 812 0C787.3 0 762.7 0 738.2 0C713.7 0 689.3 0 664.8 0C640.3 0 615.7 0 591 0C566.3 0 541.7 0 517 0C492.3 0 467.7 0 443 0C418.3 0 393.7 0 369 0C344.3 0 319.7 0 295.2 0C270.7 0 246.3 0 221.8 0C197.3 0 172.7 0 148 0C123.3 0 98.7 0 74 0C49.3 0 24.7 0 12.3 0L0 0Z" fill="#854bf8"></path><path d="M0 120L12.3 120.5C24.7 121 49.3 122 74 125.5C98.7 129 123.3 135 148 134C172.7 133 197.3 125 221.8 115.7C246.3 106.3 270.7 95.7 295.2 87.8C319.7 80 344.3 75 369 72.3C393.7 69.7 418.3 69.3 443 80C467.7 90.7 492.3 112.3 517 122.3C541.7 132.3 566.3 130.7 591 127.7C615.7 124.7 640.3 120.3 664.8 119.8C689.3 119.3 713.7 122.7 738.2 115C762.7 107.3 787.3 88.7 812 87C836.7 85.3 861.3 100.7 886 104.2C910.7 107.7 935.3 99.3 947.7 95.2L960 91L960 0L947.7 0C935.3 0 910.7 0 886 0C861.3 0 836.7 0 812 0C787.3 0 762.7 0 738.2 0C713.7 0 689.3 0 664.8 0C640.3 0 615.7 0 591 0C566.3 0 541.7 0 517 0C492.3 0 467.7 0 443 0C418.3 0 393.7 0 369 0C344.3 0 319.7 0 295.2 0C270.7 0 246.3 0 221.8 0C197.3 0 172.7 0 148 0C123.3 0 98.7 0 74 0C49.3 0 24.7 0 12.3 0L0 0Z" fill="#6d43f8"></path><path d="M0 60L12.3 61.2C24.7 62.3 49.3 64.7 74 62.7C98.7 60.7 123.3 54.3 148 57.2C172.7 60 197.3 72 221.8 73.8C246.3 75.7 270.7 67.3 295.2 67.2C319.7 67 344.3 75 369 79.8C393.7 84.7 418.3 86.3 443 80.2C467.7 74 492.3 60 517 53.7C541.7 47.3 566.3 48.7 591 52.3C615.7 56 640.3 62 664.8 65.7C689.3 69.3 713.7 70.7 738.2 67C762.7 63.3 787.3 54.7 812 52C836.7 49.3 861.3 52.7 886 59.2C910.7 65.7 935.3 75.3 947.7 80.2L960 85L960 0L947.7 0C935.3 0 910.7 0 886 0C861.3 0 836.7 0 812 0C787.3 0 762.7 0 738.2 0C713.7 0 689.3 0 664.8 0C640.3 0 615.7 0 591 0C566.3 0 541.7 0 517 0C492.3 0 467.7 0 443 0C418.3 0 393.7 0 369 0C344.3 0 319.7 0 295.2 0C270.7 0 246.3 0 221.8 0C197.3 0 172.7 0 148 0C123.3 0 98.7 0 74 0C49.3 0 24.7 0 12.3 0L0 0Z" fill="#4e3df9"></path></svg>